# xmcd
#
# Track frame offsets:
# 150
# 13572
# 23902
# 38897
# 50845
# 64992
# 78250
# 93747
# 105690
# 115012
# 127852
# 140417
# 153132
# 170177
# 181982
# 191312
# 206732
#
# Disc length: 2919 seconds
#
#
# Revision: 0
# Processed by: cddbd v1.5.1PL2 Copyright (c) Steve Scherf et al.
# Submitted via: FreeRIP 2.945 
#
DISCID=e50b6511
DTITLE=Lester Flatt - Essential Bluegrass Gospel
DYEAR=2004
DGENRE=Gospel
TTITLE0=I'm Gonna Sit Down Beside My Jesus
TTITLE1=Get In Line, Brother
TTITLE2=Father's Table Grace
TTITLE3=Heaven's Bluegrass Band
TTITLE4=What Would You Give In Exchange For Your Soul
TTITLE5=Little Brown Church (In The White Oak Grove)
TTITLE6=Will The Circle Be Unbroken
TTITLE7=The Night Daddy Passed Away
TTITLE8=There's Gonna Be A Singing
TTITLE9=Back To The Cross
TTITLE10=The Unclouded Day
TTITLE11=Wicked Man
TTITLE12=Tramp On The Street
TTITLE13=I'll Fly Away (Instrumental)
TTITLE14=Palms of Victory
TTITLE15=He Took Your Place
TTITLE16=Thinking About You
EXTD=CMH Records
EXTT0=
EXTT1=
EXTT2=
EXTT3=
EXTT4=
EXTT5=
EXTT6=
EXTT7=
EXTT8=
EXTT9=
EXTT10=
EXTT11=
EXTT12=
EXTT13=
EXTT14=
EXTT15=
EXTT16=
PLAYORDER=
